<?xml version="1.0" encoding="utf-8"?>
<!-- Generator: Adobe Illustrator 21.0.0, SVG Export Plug-In . SVG Version: 6.00 Build 0)  -->
<svg version="1.1" id="Layer_1" xmlns="http://www.w3.org/2000/svg" xmlns:xlink="http://www.w3.org/1999/xlink" x="0px" y="0px"
	 viewBox="0 0 500 500" style="enable-background:new 0 0 500 500;" xml:space="preserve">
<style type="text/css">
	.st0{fill:#FFFFFF;}
	.st1{fill:#EFDFC1;}
	.st2{opacity:0.3;fill:#B3A791;}
	.st3{fill:#66CCFF;}
	.st4{fill:#A3DE79;}
	.st5{fill:#B3A791;}
	.st6{fill:#F5ECDA;}
	.st7{fill:#BB2F2F;}
	.st8{fill:#F93E3E;}
</style>
<g>
	<rect class="st0" width="500" height="500"/>
	<path class="st1" d="M190.4,297.2V185.6c0-30.3,24.6-54.9,54.9-54.9h55.3c20.8,0,37.8-16.9,37.8-37.8V35.5H155.7v58.3
		c0,41.3-33.6,75-75,75H35.5v157.9h125.4C164.2,312,175.7,300.5,190.4,297.2z"/>
	<path class="st1" d="M355.5,35.5V93c0,30.3-24.6,54.9-54.9,54.9h-55.3c-20.8,0-37.8,16.9-37.8,37.8v111.5
		c14.6,3.3,26.2,14.8,29.5,29.5h58.2c28,0,50.4-22.9,50.5-51c0.2-37.1,30.5-67.3,67.7-67.3h51.1V59c0-13-10.5-23.5-23.5-23.5H355.5z
		"/>
	<path class="st2" d="M383.1,52.2H195.4c-8.1,0-14.7,6.6-14.7,14.7v71.4c0,8.1,6.6,14.7,14.7,14.7h82.7l5.8,10
		c2.4,4.1,8.4,4.1,10.8,0l5.8-10h82.7c8.1,0,14.7-6.6,14.7-14.7V66.8C397.8,58.7,391.2,52.2,383.1,52.2z"/>
	<path class="st1" d="M177.1,335.3c0,12.1,9.8,21.9,21.9,21.9c12.1,0,21.9-9.8,21.9-21.9c0-12.1-9.8-21.9-21.9-21.9
		C186.9,313.4,177.1,323.2,177.1,335.3z"/>
	<path class="st1" d="M160.9,343.9H35.5V441c0,13,10.5,23.5,23.5,23.5h131.4v-91.1C175.7,370.1,164.2,358.5,160.9,343.9z"/>
	<path class="st3" d="M138.5,93.8V35.5H59C46,35.5,35.5,46,35.5,59v92.7h45.2C112.7,151.7,138.5,125.8,138.5,93.8z"/>
	<path class="st3" d="M403.6,428v36.5H441c13,0,23.5-10.5,23.5-23.5v-63.1h-10.7C426,377.9,403.6,400.3,403.6,428z"/>
	<path class="st4" d="M362.9,276.2c0,37.3-30.4,67.7-67.7,67.7H237c-3.3,14.6-14.8,26.2-29.5,29.5v91.1h178.9V428
		c0-37.1,30.2-67.3,67.3-67.3h10.7V225.6h-51.1C385.6,225.6,362.9,248.3,362.9,276.2z"/>
	<path class="st0" d="M375.6,44.7H187.9c-8.1,0-14.7,6.6-14.7,14.7v71.4c0,8.1,6.6,14.7,14.7,14.7h82.7l5.8,10
		c2.4,4.1,8.4,4.1,10.8,0l5.8-10h82.7c8.1,0,14.7-6.6,14.7-14.7V59.3C390.3,51.2,383.7,44.7,375.6,44.7z"/>
	<path class="st5" d="M366,72.4H197.4c-2.7,0-4.9-2.2-4.9-4.9l0,0c0-2.7,2.2-4.9,4.9-4.9H366c2.7,0,4.9,2.2,4.9,4.9l0,0
		C371,70.2,368.8,72.4,366,72.4z"/>
	<path class="st1" d="M366,96.4H197.4c-2.7,0-4.9-2.2-4.9-4.9l0,0c0-2.7,2.2-4.9,4.9-4.9H366c2.7,0,4.9,2.2,4.9,4.9l0,0
		C371,94.2,368.8,96.4,366,96.4z"/>
	<path class="st6" d="M366,120.4H197.4c-2.7,0-4.9-2.2-4.9-4.9l0,0c0-2.7,2.2-4.9,4.9-4.9H366c2.7,0,4.9,2.2,4.9,4.9l0,0
		C371,118.2,368.8,120.4,366,120.4z"/>
	<ellipse class="st2" cx="281.7" cy="299.5" rx="51.5" ry="6"/>
	<g>
		<circle class="st7" cx="281.7" cy="219.5" r="33.3"/>
		<path class="st8" d="M281.7,165.2c-30,0-54.3,24.3-54.3,54.3c0,23.7,34,62,48.2,77c3.3,3.5,8.9,3.5,12.2,0
			c14.2-14.9,48.2-53.2,48.2-77C336,189.5,311.7,165.2,281.7,165.2z M281.7,249.6c-16.7,0-30.1-13.5-30.1-30.1s13.5-30.1,30.1-30.1
			c16.7,0,30.1,13.5,30.1,30.1S298.4,249.6,281.7,249.6z"/>
	</g>
</g>
</svg>
